<?xml version="1.0" encoding="utf-8"?>
<!-- Generator: Adobe Illustrator 28.4.1, SVG Export Plug-In . SVG Version: 6.00 Build 0)  -->
<svg version="1.1" id="Camada_1" xmlns="http://www.w3.org/2000/svg" xmlns:xlink="http://www.w3.org/1999/xlink" x="0px" y="0px"
	 viewBox="0 0 600 600" style="enable-background:new 0 0 600 600;" xml:space="preserve">
<style type="text/css">
	.st0{fill:none;stroke:#374151;stroke-width:4;stroke-linecap:round;}
	.st1{fill:none;stroke:#0000FF;stroke-width:9;stroke-linecap:round;}
	.st2{fill:none;stroke:#FF0000;stroke-width:9;stroke-linecap:round;}
</style>
<g id="ground">
	<line class="st0" x1="50" y1="464.1" x2="550" y2="464.1"/>
</g>
<g id="edge-blue-ground-01">
	<line class="st1" x1="111" y1="359.1" x2="111" y2="464.1"/>
</g>
<g id="edge-blue-01-02">
	<line class="st1" x1="111" y1="301.6" x2="111" y2="359.1"/>
</g>
<g id="edge-blue-02-05">
	<line class="st1" x1="194" y1="301.6" x2="111" y2="301.6"/>
</g>
<g id="edge-blue-04-05">
	<line class="st1" x1="194" y1="244.1" x2="194" y2="301.6"/>
</g>
<g id="edge-blue-04-07">
	<line class="st1" x1="277" y1="244.1" x2="194" y2="244.1"/>
</g>
<g id="edge-blue-06-09">
	<line class="st1" x1="194" y1="359.1" x2="277" y2="359.1"/>
</g>
<g id="edge-blue-07-08">
	<line class="st1" x1="277" y1="301.6" x2="277" y2="244.1"/>
</g>
<g id="edge-blue-ground-10">
	<line class="st1" x1="414" y1="301.6" x2="414" y2="464.1"/>
</g>
<g id="edge-blue-03-13">
	<line class="st1" x1="111" y1="244.1" x2="198" y2="143.9"/>
</g>
<g id="edge-blue-11-12">
	<line class="st1" x1="503.7" y1="244.1" x2="503.7" y2="301.6"/>
</g>
<g id="edge-blue-12-14">
	<line class="st1" x1="410" y1="143.9" x2="503.7" y2="244.1"/>
</g>
<g id="edge-red-13-14">
	<line class="st2" x1="198" y1="143.9" x2="410" y2="143.9"/>
</g>
<g id="edge-red-07-12">
	<line class="st2" x1="277" y1="244.1" x2="503.7" y2="244.1"/>
</g>
<g id="edge-red-03-04">
	<line class="st2" x1="111" y1="244.1" x2="194" y2="244.1"/>
</g>
<g id="edge-red-02-03">
	<line class="st2" x1="111" y1="301.6" x2="111" y2="244.1"/>
</g>
<g id="edge-red-05-06">
	<line class="st2" x1="194" y1="301.6" x2="194" y2="359.1"/>
</g>
<g id="edge-red-05-08">
	<line class="st2" x1="277" y1="301.6" x2="194" y2="301.6"/>
</g>
<g id="edge-red-08-09">
	<line class="st2" x1="277" y1="359.1" x2="277" y2="301.6"/>
</g>
<g id="edge-red-01-06">
	<line class="st2" x1="194" y1="359.1" x2="111" y2="359.1"/>
</g>
<g id="edge-red-10-11">
	<line class="st2" x1="414" y1="301.6" x2="503.7" y2="301.6"/>
</g>
<g id="edge-red-ground-11">
	<line class="st2" x1="503.7" y1="301.6" x2="503.7" y2="464.1"/>
</g>
<g id="vertex-01">
	<circle cx="111" cy="359.1" r="8"/>
</g>
<g id="vertex-02">
	<circle cx="111" cy="301.6" r="8"/>
</g>
<g id="vertex-03">
	<circle cx="111" cy="244.1" r="8"/>
</g>
<g id="vertex-06">
	<circle cx="194" cy="359.1" r="8"/>
</g>
<g id="vertex-05">
	<circle cx="194" cy="301.6" r="8"/>
</g>
<g id="vertex-04_00000070834605684226508890000009783849020804703679_">
	<circle cx="194" cy="244.1" r="8"/>
</g>
<g id="vertex-13">
	<circle cx="198" cy="143.9" r="8"/>
</g>
<g id="vertex-14">
	<circle cx="410" cy="143.9" r="8"/>
</g>
<g id="vertex-09">
	<circle cx="277" cy="359.1" r="8"/>
</g>
<g id="vertex-08">
	<circle cx="277" cy="301.6" r="8"/>
</g>
<g id="vertex-10">
	<circle cx="413" cy="301.6" r="8"/>
</g>
<g id="vertex-11">
	<circle cx="503.7" cy="301.6" r="8"/>
</g>
<g id="vertex-07">
	<circle cx="277" cy="244.1" r="8"/>
</g>
<g id="vertex-12">
	<circle cx="503.7" cy="244.1" r="8"/>
</g>
</svg>
