<?xml version="1.0" encoding="utf-8"?>
<!-- Generator: Adobe Illustrator 28.4.1, SVG Export Plug-In . SVG Version: 6.00 Build 0)  -->
<svg version="1.1" id="Camada_1" xmlns="http://www.w3.org/2000/svg" xmlns:xlink="http://www.w3.org/1999/xlink" x="0px" y="0px"
	 viewBox="0 0 600 600" style="enable-background:new 0 0 600 600;" xml:space="preserve">
<style type="text/css">
	.st0{fill:none;stroke:#374151;stroke-width:4;stroke-linecap:round;}
	.st1{fill:none;stroke:#0000FF;stroke-width:9;stroke-linecap:round;}
	.st2{fill:none;stroke:#FF0000;stroke-width:9;stroke-linecap:round;}
</style>
<g id="ground">
	<line class="st0" x1="50" y1="573" x2="550" y2="573"/>
</g>
<g id="edge-blue-07-08">
	<path class="st1" d="M334.7,151c0,0-29.5-4.8-41.7-52.3C280.7,51.3,307.5,30,334.7,30"/>
</g>
<g id="edge-red-07-08">
	<path class="st2" d="M336.9,151c0,0,29.5-4.8,41.7-52.3C390.9,51.3,364.1,30,336.9,30"/>
</g>
<g id="edge-red-08-09">
	<path class="st2" d="M335.7,33c0,0,6.5-38.7,43.3-11s54.4,55.5,90.4,24"/>
</g>
<g id="edge-blue-07-12">
	<line class="st1" x1="224.5" y1="174.8" x2="336.9" y2="151"/>
</g>
<g id="edge-red-13-12">
	<line class="st2" x1="128.8" y1="121.9" x2="224.5" y2="174.8"/>
</g>
<g id="edge-red-07-10">
	<line class="st2" x1="446" y1="137.9" x2="334.7" y2="151"/>
</g>
<g id="edge-blue-10-11">
	<line class="st1" x1="539.7" y1="191.8" x2="446" y2="137.9"/>
</g>
<g id="edge-blue-06-07">
	<line class="st1" x1="335.9" y1="151" x2="324.2" y2="247"/>
</g>
<g id="edge-blue-14-06">
	<line class="st1" x1="324.2" y1="247" x2="179.6" y2="321.1"/>
</g>
<g id="edge-red-05-14">
	<line class="st2" x1="266.4" y1="351.1" x2="179.6" y2="324.2"/>
</g>
<g id="edge-red-05-15">
	<line class="st2" x1="382" y1="351.1" x2="266.4" y2="351.1"/>
</g>
<g id="edge-blue-15-16">
	<line class="st1" x1="470.8" y1="322.8" x2="382" y2="351.1"/>
</g>
<g id="edge-red-06-16">
	<line class="st2" x1="324.2" y1="247" x2="470.8" y2="322.8"/>
</g>
<g id="edge-blue-03-05">
	<line class="st1" x1="216.5" y1="427.7" x2="266.4" y2="351.1"/>
</g>
<g id="edge-blue-15-04">
	<line class="st1" x1="332.2" y1="427.7" x2="382" y2="351.1"/>
</g>
<g id="edge-red-01-03">
	<line class="st2" x1="251" y1="502" x2="216.5" y2="427.7"/>
</g>
<g id="edge-red-02-04">
	<line class="st2" x1="366.7" y1="502" x2="332.2" y2="427.7"/>
</g>
<g id="edge-blue-ground-01">
	<line class="st1" x1="216.5" y1="572" x2="251" y2="502"/>
</g>
<g id="edge-red-ground-02">
	<line class="st2" x1="332.7" y1="572" x2="366.7" y2="502"/>
</g>
<g id="edge-blue-13-13">
	<circle class="st1" cx="91" cy="95.9" r="45.5"/>
</g>
<g id="vertex-01">
	<circle cx="251" cy="502" r="8"/>
</g>
<g id="vertex-02">
	<circle cx="366.7" cy="502" r="8"/>
</g>
<g id="vertex-03">
	<circle cx="216.5" cy="427.7" r="8"/>
</g>
<g id="vertex-04_00000052791662818337768390000012582117327289417142_">
	<circle cx="332.2" cy="427.7" r="8"/>
</g>
<g id="vertex-05">
	<circle cx="266.4" cy="351.1" r="8"/>
</g>
<g id="vertex-06">
	<circle cx="324.2" cy="247" r="8"/>
</g>
<g id="vertex-07">
	<circle cx="335.7" cy="151" r="8"/>
</g>
<g id="vertex-08">
	<circle cx="335.7" cy="30" r="8"/>
</g>
<g id="vertex-09">
	<circle cx="470.8" cy="44.4" r="8"/>
</g>
<g id="vertex-10">
	<circle cx="446" cy="137.9" r="8"/>
</g>
<g id="vertex-11">
	<circle cx="539.7" cy="191.8" r="8"/>
</g>
<g id="vertex-12">
	<circle cx="224.5" cy="174.8" r="8"/>
</g>
<g id="vertex-13">
	<circle cx="128.8" cy="121.9" r="8"/>
</g>
<g id="vertex-14">
	<circle cx="179.6" cy="321.1" r="8"/>
</g>
<g id="vertex-15">
	<circle cx="382" cy="351.1" r="8"/>
</g>
<g id="vertex-16">
	<circle cx="469.3" cy="322.8" r="8"/>
</g>
</svg>
