<?xml version="1.0" encoding="utf-8"?>
<!-- Generator: Adobe Illustrator 28.4.1, SVG Export Plug-In . SVG Version: 6.00 Build 0)  -->
<svg version="1.1" id="Camada_1" xmlns="http://www.w3.org/2000/svg" xmlns:xlink="http://www.w3.org/1999/xlink" x="0px" y="0px"
	 viewBox="0 0 600 600" style="enable-background:new 0 0 600 600;" xml:space="preserve">
<style type="text/css">
	.st0{fill:none;stroke:#374151;stroke-width:4;stroke-linecap:round;}
	.st1{fill:none;stroke:#FF0000;stroke-width:9;stroke-linecap:round;}
	.st2{fill:none;stroke:#0000FF;stroke-width:9;stroke-linecap:round;}
</style>
<g id="ground">
	<line class="st0" x1="50" y1="509" x2="550" y2="509"/>
</g>
<g id="edge-red-01-06">
	<line class="st1" x1="146.9" y1="347.7" x2="272.9" y2="286.1"/>
</g>
<g id="edge-blue-ground-01">
	<line class="st2" x1="146.9" y1="347.7" x2="105" y2="508"/>
</g>
<g id="edge-blue-ground-01_00000158709752233434333600000005133030042510948512_">
	<line class="st2" x1="146.9" y1="347.7" x2="188.7" y2="508"/>
</g>
<g id="edge-blue-ground-02">
	<line class="st2" x1="399" y1="347.7" x2="357.1" y2="508"/>
</g>
<g id="edge-blue-ground-02_00000124851158996258943500000015673499092560349610_">
	<line class="st2" x1="399" y1="347.7" x2="440.9" y2="508"/>
</g>
<g id="edge-red-01-05">
	<line class="st1" x1="272.9" y1="411.6" x2="146.9" y2="347.7"/>
</g>
<g id="edge-red-02-06">
	<line class="st1" x1="272.9" y1="286.1" x2="399" y2="347.7"/>
</g>
<g id="edge-red-02-05">
	<line class="st1" x1="272.9" y1="411.6" x2="399" y2="347.7"/>
</g>
<g id="edge-red-02-03">
	<line class="st1" x1="399" y1="347.7" x2="444" y2="212.9"/>
</g>
<g id="edge-blue-03-04">
	<line class="st2" x1="444" y1="212.9" x2="526.8" y2="295.7"/>
</g>
<g id="edge-red-01-01">
	<path class="st1" d="M142.1,337.6l-12.7-80.3c-1.9-21.8-25.7-34.5-44.9-23.9l0,0c-19.2,10.6-21.1,37.5-3.6,50.7L142.1,337.6z"/>
</g>
<g id="edge-blue-03-03">
	<path class="st2" d="M437.6,204.9l-12.7-80.3c-1.9-21.8-25.7-34.5-44.9-23.9l0,0c-19.2,10.6-21.1,37.5-3.6,50.7L437.6,204.9z"/>
</g>
<g id="edge-red-03-03">
	<path class="st1" d="M447.1,203.2l60-54.8c17.2-13.6,14.7-40.4-4.8-50.6l0,0c-19.4-10.2-42.9,3-44.3,24.9L447.1,203.2z"/>
</g>
<g id="edge-blue-05-06">
	<line class="st2" x1="272.9" y1="286.1" x2="272.9" y2="411.6"/>
</g>
<g id="vertex-01">
	<circle cx="146.9" cy="347.7" r="8"/>
</g>
<g id="vertex-02">
	<circle cx="399" cy="347.7" r="8"/>
</g>
<g id="vertex-03">
	<circle cx="444" cy="212.9" r="8"/>
</g>
<g id="vertex-04">
	<circle cx="526.8" cy="295.7" r="8"/>
</g>
<g id="vertex-05">
	<circle cx="272.9" cy="411.6" r="8"/>
</g>
<g id="vertex-06">
	<circle cx="272.9" cy="286.1" r="8"/>
</g>
</svg>
