<?xml version="1.0" encoding="utf-8"?>
<!-- Generator: Adobe Illustrator 28.4.1, SVG Export Plug-In . SVG Version: 6.00 Build 0)  -->
<svg version="1.1" id="Camada_1" xmlns="http://www.w3.org/2000/svg" xmlns:xlink="http://www.w3.org/1999/xlink" x="0px" y="0px"
	 viewBox="0 0 600 600" style="enable-background:new 0 0 600 600;" xml:space="preserve">
<style type="text/css">
	.st0{fill:none;stroke:#374151;stroke-width:4;stroke-linecap:round;}
	.st1{fill:none;stroke:#FF0000;stroke-width:9;stroke-linecap:round;}
	.st2{fill:none;stroke:#0000FF;stroke-width:9;stroke-linecap:round;}
</style>
<g id="ground">
	<line class="st0" x1="50" y1="573" x2="550" y2="573"/>
</g>
<g id="edge-red-01-06">
	<line class="st1" x1="131" y1="228.9" x2="300" y2="228.9"/>
</g>
<g id="edge-blue-01-11">
	<line class="st2" x1="300" y1="228.9" x2="469" y2="228.9"/>
</g>
<g id="edge-red-04-05">
	<path class="st1" d="M227.9,424.1c-19.4-16.6-33-39.8-37.2-66.1"/>
</g>
<g id="edge-blue-05-10">
	<path class="st2" d="M372.2,424.1c-19.4,16.7-44.6,26.8-72.2,26.8c-27.5,0-52.7-10-72.1-26.7"/>
</g>
<g id="edge-blue-09-10">
	<path class="st2" d="M409.4,358c-4.3,26.3-17.8,49.4-37.1,66"/>
</g>
<g id="edge-red-01-09">
	<path class="st1" d="M300,229.2c61.2,0,110.8,49.6,110.8,110.8c0,6.1-0.5,12.1-1.5,18"/>
</g>
<g id="edge-blue-01-04">
	<path class="st2" d="M190.6,358c-1-5.9-1.5-11.9-1.5-18c0-61.2,49.6-110.8,110.8-110.8"/>
</g>
<g id="edge-blue-04-09">
	<path class="st2" d="M409.4,357.9C376,343,339,334.7,300,334.7s-76,8.3-109.4,23.2"/>
</g>
<g id="edge-blue-ground-05">
	<path class="st2" d="M227.1,424.9c18.5,17.4,30,42.1,30,69.5c0,31.1-14.9,58.8-37.9,76.2"/>
</g>
<g id="edge-red-ground-10">
	<path class="st1" d="M372.9,424.9c-18.5,17.4-30,42.1-30,69.5c0,31.1,14.9,58.8,37.9,76.2"/>
</g>
<g id="edge-blue-03-08">
	<path class="st2" d="M348.1,104.6C335.5,93,318.6,86,300.1,86c-18.4,0-35.2,7-47.9,18.5"/>
</g>
<g id="edge-red-01-08">
	<path class="st1" d="M300.1,228.4c39.3,0,71.2-31.9,71.2-71.2c0-20.8-8.9-39.5-23.1-52.6"/>
</g>
<g id="edge-blue-01-03">
	<path class="st2" d="M252.2,104.5c-14.3,13-23.3,31.8-23.3,52.7c0,39.3,31.9,71.2,71.2,71.2"/>
</g>
<g id="edge-red-02-03">
	<path class="st1" d="M283.2,122c-11.8-2.8-22.5-8.5-31.3-16.3"/>
</g>
<g id="edge-red-07-08">
	<path class="st1" d="M348.9,105.2c-8.9,8-19.8,13.8-31.8,16.7"/>
</g>
<g id="edge-red-03-08">
	<path class="st1" d="M251.7,102.5c0-26.9,21.8-48.6,48.6-48.6c26.9,0,48.6,21.8,48.6,48.6"/>
</g>
<g id="edge-red-02-02">
	<circle class="st1" cx="278.3" cy="137.8" r="15.8"/>
</g>
<g id="edge-blue-07-07">
	<circle class="st2" cx="321.2" cy="137.8" r="15.8"/>
</g>
<g id="edge-blue-02-07">
	<path class="st2" d="M317.1,122c-5.4,1.3-11.1,2-17,2c-5.8,0-11.5-0.7-17-2"/>
</g>
<g id="vertex-01">
	<circle cx="300" cy="227.9" r="8"/>
</g>
<g id="vertex-02_00000072277353140048289700000000908940685454436236_">
	<circle cx="283.2" cy="121.5" r="8"/>
</g>
<g id="vertex-03">
	<circle cx="251.9" cy="104.5" r="8"/>
</g>
<g id="vertex-04">
	<circle cx="189.4" cy="358" r="8"/>
</g>
<g id="vertex-05">
	<circle cx="227.2" cy="424.7" r="8"/>
</g>
<g id="vertex-06">
	<circle cx="131" cy="228.9" r="8"/>
</g>
<g id="vertex-07">
	<circle cx="316.8" cy="121.5" r="8"/>
</g>
<g id="vertex-08">
	<circle cx="348.1" cy="104.5" r="8"/>
</g>
<g id="vertex-09">
	<circle cx="410.6" cy="358" r="8"/>
</g>
<g id="vertex-10">
	<circle cx="372.8" cy="424.7" r="8"/>
</g>
<g id="vertex-11">
	<circle cx="469" cy="228.9" r="8"/>
</g>
</svg>
